HIERARCHY
ROOT Hips
{
 OFFSET 0.000000 0.000000 0.000000
 CHANNELS 6 Xposition Yposition Zposition Yrotation Xrotation Zrotation
 JOINT Chest
 {
  OFFSET 0.000000 9.585900 0.002600
  CHANNELS 3 Yrotation Xrotation Zrotation
  JOINT Chest2
  {
   OFFSET 0.000000 9.601200 -0.005300
   CHANNELS 3 Yrotation Xrotation Zrotation
   JOINT Chest3
   {
    OFFSET 0.000000 9.561800 0.000000
    CHANNELS 3 Yrotation Xrotation Zrotation
    JOINT Chest4
    {
     OFFSET 0.000000 9.552100 0.000000
     CHANNELS 3 Yrotation Xrotation Zrotation
     JOINT Neck
     {
      OFFSET 0.000000 14.453000 0.000000
      CHANNELS 3 Yrotation Xrotation Zrotation
      JOINT Head
      {
       OFFSET 0.000000 8.936500 -0.011300
       CHANNELS 3 Yrotation Xrotation Zrotation
       End Site
       {
        OFFSET 0.000000 17.073600 -0.006000
       }
      }
     }
     JOINT RightCollar
     {
      OFFSET -2.921100 9.558500 0.000000
      CHANNELS 3 Yrotation Xrotation Zrotation
      JOINT RightShoulder
      {
       OFFSET -13.519700 0.000000 0.000000
       CHANNELS 3 Yrotation Xrotation Zrotation
       JOINT RightElbow
       {
        OFFSET 0.000000 -29.696600 0.000000
        CHANNELS 3 Yrotation Xrotation Zrotation
        JOINT RightWrist
        {
         OFFSET 0.000000 -24.004700 0.000000
         CHANNELS 3 Yrotation Xrotation Zrotation
         End Site
         {
          OFFSET 0.000000 -17.728500 0.000000
         }
        }
       }
      }
     }
     JOINT LeftCollar
     {
      OFFSET 2.921100 9.558500 0.000000
      CHANNELS 3 Yrotation Xrotation Zrotation
      JOINT LeftShoulder
      {
       OFFSET 13.519700 0.000000 0.000000
       CHANNELS 3 Yrotation Xrotation Zrotation
       JOINT LeftElbow
       {
        OFFSET 0.000000 -29.696600 0.000000
        CHANNELS 3 Yrotation Xrotation Zrotation
        JOINT LeftWrist
        {
         OFFSET 0.000000 -24.004700 0.000000
         CHANNELS 3 Yrotation Xrotation Zrotation
         End Site
         {
          OFFSET 0.000000 -17.728500 0.000000
         }
        }
       }
      }
     }
    }
   }
  }
 }
 JOINT RightHip
 {
  OFFSET -7.771700 -0.012900 -0.001300
  CHANNELS 3 Yrotation Xrotation Zrotation
  JOINT RightKnee
  {
   OFFSET 0.000000 -40.869800 0.001200
   CHANNELS 3 Yrotation Xrotation Zrotation
   JOINT RightAnkle
   {
    OFFSET 0.000000 -39.717900 0.002100
    CHANNELS 3 Yrotation Xrotation Zrotation
    JOINT RightToe
    {
     OFFSET 0.000000 -4.965400 11.033500
     CHANNELS 3 Yrotation Xrotation Zrotation
     End Site
     {
      OFFSET 0.000000 -1.423100 5.872300
     }
    }
   }
  }
 }
 JOINT LeftHip
 {
  OFFSET 7.771700 -0.012900 -0.001300
  CHANNELS 3 Yrotation Xrotation Zrotation
  JOINT LeftKnee
  {
   OFFSET 0.000000 -40.869800 0.001200
   CHANNELS 3 Yrotation Xrotation Zrotation
   JOINT LeftAnkle
   {
    OFFSET 0.000000 -39.717900 0.002100
    CHANNELS 3 Yrotation Xrotation Zrotation
    JOINT LeftToe
    {
     OFFSET 0.000000 -4.965400 11.033500
     CHANNELS 3 Yrotation Xrotation Zrotation
     End Site
     {
      OFFSET 0.000000 -1.423100 5.872300
     }
    }
   }
  }
 }
}
MOTION
Frames: 15
Frame Time: 0.008333
-187.281468 58.080403 29.281912 170.378732 -49.402436 -3.229563 4.974486 21.964942 3.705363 2.566121 12.590499 1.903367 3.295260 15.723120 2.485251 2.585812 12.608573 1.907427 -1.002294 17.113682 -2.188527 -1.070208 -4.019287 -3.683126 1.032430 3.868464 -0.204185 3.292051 -12.592369 -10.424229 -60.244403 -70.968717 101.180556 5.413608 23.315686 -16.708289 -9.916596 1.446119 -1.223324 2.491788 -11.263131 12.382259 53.807423 -71.002957 -92.634929 -6.780953 10.901063 4.802527 3.601852 -23.224723 1.080433 -36.933092 72.943147 -37.878805 6.750465 -12.027822 9.080075 0.030732 -0.137522 0.013942 -0.049825 -22.013756 13.439126 51.581177 79.844349 51.578563 3.882341 -16.090122 -15.439731 0.035426 0.108698 0.009774
-187.280086 58.079985 29.282998 170.373389 -49.399847 -3.231233 4.970892 21.957758 3.702082 2.563311 12.586470 1.901449 3.291569 15.718114 2.482633 2.581340 12.603796 1.909161 -0.982135 17.118765 -2.180109 -1.027703 -4.055581 -3.642658 1.050741 3.874262 -0.219127 3.281047 -12.585358 -10.419344 -60.247494 -70.975851 101.182077 5.479801 23.343756 -16.624182 -9.926948 1.440611 -1.217635 2.513060 -11.239423 12.368957 53.733407 -71.020689 -92.555922 -6.774117 10.900958 4.799289 3.602926 -23.227050 1.089215 -36.898432 72.944019 -37.843799 6.737334 -12.023319 9.077897 0.030804 -0.136524 0.014579 -0.050090 -22.016658 13.447564 51.572230 79.847253 51.569173 3.882945 -16.091381 -15.439693 0.036790 0.109697 0.009676
-187.278786 58.080257 29.283312 170.369911 -49.401471 -3.234194 4.971075 21.956231 3.703446 2.561740 12.584635 1.900315 3.279897 15.707895 2.476575 2.584815 12.602208 1.907146 -0.951114 17.074135 -2.135848 -0.984405 -4.047638 -3.627147 1.058302 3.873010 -0.228838 3.272570 -12.573850 -10.410918 -60.198379 -71.052676 101.115712 5.492866 23.340831 -16.520235 -9.921126 1.452616 -1.213631 2.515170 -11.234258 12.363692 53.691136 -71.028090 -92.511060 -6.774828 10.909762 4.793106 3.603228 -23.225598 1.097310 -36.892472 72.945561 -37.838505 6.744174 -12.023900 9.072284 0.030376 -0.137178 0.018221 -0.055521 -22.012900 13.457441 51.572167 79.849033 51.564572 3.882022 -16.095495 -15.440292 0.038871 0.112022 0.010712
-187.279017 58.080400 29.283138 170.368239 -49.401896 -3.230131 4.966063 21.953687 3.695140 2.559374 12.582890 1.898924 3.278597 15.705082 2.475907 2.566947 12.591551 1.900468 -0.910368 17.059259 -2.109675 -0.930262 -4.069746 -3.593822 1.066351 3.863650 -0.249077 3.270388 -12.548239 -10.391986 -60.192117 -71.065895 101.116798 5.563280 23.363160 -16.435604 -9.904545 1.466156 -1.211551 2.519742 -11.229404 12.357895 53.669388 -71.031898 -92.485209 -6.777979 10.924316 4.784246 3.605711 -23.225041 1.096016 -36.895118 72.945177 -37.845164 6.748321 -12.024691 9.074782 0.026367 -0.137105 0.017731 -0.054555 -22.011760 13.454985 51.586258 79.847550 51.578728 3.876896 -16.098657 -15.442744 0.038442 0.113469 0.013283
-187.278984 58.080603 29.282733 170.369323 -49.402390 -3.230533 4.958406 21.947450 3.690474 2.544922 12.566093 1.892806 3.291648 15.720960 2.477802 2.538419 12.552984 1.891904 -0.855965 17.070429 -2.083811 -0.870649 -4.091786 -3.560031 1.098946 3.907802 -0.249014 3.255611 -12.551081 -10.403013 -60.183027 -71.069912 101.115325 5.637800 23.388264 -16.342307 -9.896510 1.483138 -1.211731 2.543510 -11.199248 12.350387 53.604190 -71.039481 -92.420964 -6.774428 10.920484 4.779168 3.608121 -23.223257 1.098074 -36.903084 72.943734 -37.852661 6.746464 -12.027697 9.074908 0.025148 -0.134673 0.016332 -0.056082 -22.010336 13.454502 51.605140 79.842471 51.597950 3.871478 -16.100631 -15.446636 0.037370 0.115325 0.015960
-187.279280 58.080686 29.282090 170.369809 -49.402229 -3.229257 4.949031 21.940591 3.686349 2.541860 12.561210 1.886279 3.273518 15.694014 2.469671 2.557811 12.580295 1.895814 -0.822952 17.044300 -2.059292 -0.802868 -4.114603 -3.524943 1.100199 3.904242 -0.261771 3.255518 -12.536053 -10.391562 -60.168215 -71.107538 101.081841 5.700750 23.409492 -16.231036 -9.901194 1.478761 -1.209080 2.552049 -11.182296 12.343584 53.529432 -71.045159 -92.340525 -6.772740 10.903973 4.774092 3.614730 -23.223508 1.097079 -36.910499 72.946939 -37.857344 6.741363 -12.031748 9.074854 0.027984 -0.133737 0.016718 -0.056629 -22.008695 13.456684 51.599679 79.837648 51.590438 3.861673 -16.100466 -15.449217 0.041568 0.115491 0.020240
-187.279827 58.079909 29.281870 170.370250 -49.395839 -3.227752 4.940871 21.928868 3.675693 2.538336 12.554413 1.885867 3.273582 15.691517 2.468490 2.560765 12.582438 1.894993 -0.793533 17.027529 -2.038520 -0.717252 -4.148794 -3.486728 1.100862 3.899700 -0.275545 3.256372 -12.518760 -10.378008 -60.119465 -71.186586 101.001360 5.683756 23.391144 -16.150599 -9.902079 1.479118 -1.205303 2.553821 -11.170802 12.338276 53.460428 -71.046605 -92.268194 -6.771629 10.908956 4.764775 3.616388 -23.230258 1.096267 -36.905424 72.949897 -37.855782 6.743152 -12.035280 9.074484 0.021538 -0.132783 0.017495 -0.057996 -22.015574 13.455453 51.607552 79.833681 51.596636 3.858629 -16.097477 -15.450050 0.043106 0.113623 0.020794
-187.279579 58.079091 29.281571 170.364091 -49.390158 -3.226642 4.936532 21.916607 3.672518 2.537592 12.547946 1.883747 3.279798 15.699494 2.470921 2.531677 12.536707 1.882322 -0.753831 17.069330 -2.026188 -0.604382 -4.202474 -3.442561 1.128206 3.936385 -0.283548 3.247141 -12.507864 -10.371461 -60.080692 -71.236095 100.951398 5.756225 23.408412 -16.026150 -9.874403 1.527127 -1.206744 2.548354 -11.169679 12.331970 53.265362 -71.048044 -92.071608 -6.774583 10.867961 4.758898 3.622977 -23.236781 1.100425 -36.910277 72.947539 -37.859885 6.744682 -12.034888 9.075741 0.017614 -0.132018 0.017521 -0.048860 -22.024681 13.461711 51.591522 79.838693 51.586401 3.855382 -16.095765 -15.450103 0.046642 0.110446 0.022500
-187.280549 58.079324 29.279751 170.364698 -49.393944 -3.222691 4.927511 21.913359 3.662049 2.536567 12.542561 1.882289 3.274866 15.693445 2.467846 2.531399 12.533487 1.879641 -0.703650 17.053300 -1.997552 -0.501818 -4.221238 -3.409152 1.134050 3.945361 -0.293104 3.239839 -12.498151 -10.364695 -60.038928 -71.275653 100.899723 5.842916 23.428435 -15.902404 -9.873160 1.537235 -1.202155 2.558558 -11.167461 12.313393 53.165217 -71.053142 -91.965318 -6.784049 10.870911 4.715884 3.629876 -23.233161 1.098205 -36.925520 72.953556 -37.877749 6.739325 -12.042645 9.080821 0.009223 -0.131859 0.016696 -0.045895 -22.021830 13.457029 51.590800 79.843295 51.588211 3.856521 -16.095532 -15.451901 0.048582 0.107522 0.023585
-187.281324 58.079020 29.278122 170.367191 -49.394885 -3.222267 4.916002 21.900916 3.652865 2.537320 12.544549 1.880361 3.272442 15.686688 2.466623 2.535767 12.541617 1.880077 -0.653479 17.028396 -1.969111 -0.389559 -4.234862 -3.378081 1.124283 3.936435 -0.326108 3.233726 -12.488437 -10.340544 -59.982487 -71.310196 100.830870 5.903327 23.437463 -15.791150 -9.891326 1.523007 -1.190883 2.588744 -11.147821 12.290413 53.079505 -71.060180 -91.875770 -6.790050 10.856612 4.695965 3.634817 -23.232666 1.094207 -36.930765 72.960582 -37.881463 6.739728 -12.049016 9.081466 0.026599 -0.131872 0.014550 -0.044104 -22.022932 13.455012 51.592360 79.847425 51.593065 3.855713 -16.095594 -15.453989 0.050974 0.105323 0.025369
-187.281537 58.078779 29.276286 170.370268 -49.397632 -3.226187 4.911843 21.899234 3.651749 2.533228 12.538690 1.876288 3.259869 15.667102 2.454932 2.551185 12.561541 1.888669 -0.553668 16.989776 -1.923405 -0.306297 -4.223449 -3.352873 1.127436 3.943931 -0.327835 3.228665 -12.488325 -10.340190 -59.941258 -71.343146 100.773477 5.970755 23.451132 -15.683699 -9.892941 1.521809 -1.183724 2.603378 -11.140543 12.269568 52.835306 -71.087081 -91.624957 -6.783857 10.788214 4.667836 3.639603 -23.228840 1.093529 -36.933731 72.964015 -37.882633 6.754897 -12.055177 9.081147 0.012665 -0.132432 0.014734 -0.045067 -22.021544 13.457275 51.597375 79.850787 51.600910 3.855342 -16.096867 -15.456375 0.052870 0.103775 0.025421
-187.281428 58.078310 29.274502 170.365287 -49.400139 -3.226791 4.910269 21.894682 3.649933 2.536167 12.535351 1.875817 3.258058 15.663522 2.452275 2.537559 12.542498 1.878299 -0.452872 16.995771 -1.879348 -0.193720 -4.223861 -3.320671 1.142611 3.966833 -0.337888 3.185086 -12.480463 -10.330940 -59.899288 -71.376569 100.743605 6.032440 23.458053 -15.566042 -9.879680 1.545913 -1.171745 2.615628 -11.132375 12.252207 52.692339 -71.099870 -91.481781 -6.791065 10.747023 4.626565 3.642241 -23.227095 1.098535 -36.936757 72.965541 -37.886989 6.756870 -12.056724 9.083729 0.010048 -0.132893 0.012702 -0.041706 -22.020771 13.463096 51.610115 79.857280 51.617121 3.856403 -16.101342 -15.459981 0.055409 0.102630 0.026838
-187.281883 58.077276 29.272940 170.367092 -49.399047 -3.230336 4.907343 21.886571 3.649169 2.538330 12.531573 1.874231 3.257624 15.663470 2.452157 2.536817 12.535743 1.875156 -0.375264 16.994271 -1.845001 -0.061812 -4.225257 -3.283865 1.134213 3.975777 -0.347753 3.172971 -12.470600 -10.321603 -59.848995 -71.429584 100.669684 6.090916 23.462026 -15.436175 -9.883082 1.555437 -1.162349 2.624005 -11.124303 12.243414 52.564306 -71.101647 -91.348549 -6.801061 10.701943 4.580445 3.649709 -23.228902 1.100970 -36.957067 72.964902 -37.902269 6.748400 -12.058270 9.086125 0.007653 -0.131945 0.012311 -0.044287 -22.024425 13.466364 51.615343 79.862688 51.625692 3.858168 -16.101143 -15.466577 0.058740 0.100274 0.030452
-187.282801 58.076823 29.270713 170.374983 -49.402846 -3.235996 4.904176 21.882479 3.647630 2.537486 12.528786 1.873123 3.258080 15.670383 2.455471 2.535375 12.520907 1.869201 -0.290607 16.994713 -1.810106 0.082815 -4.222874 -3.248328 1.120729 3.989587 -0.358859 3.174413 -12.465382 -10.307733 -59.792752 -71.470201 100.584810 6.115551 23.450596 -15.353008 -9.885306 1.567140 -1.156121 2.632620 -11.116948 12.223179 52.400851 -71.107981 -91.180108 -6.803007 10.628610 4.490366 3.648592 -23.223281 1.098079 -36.958199 72.969274 -37.900023 6.743199 -12.064633 9.088638 0.004488 -0.129630 0.008265 -0.051320 -22.022354 13.464829 51.635021 79.865612 51.647622 3.859456 -16.100719 -15.470683 0.059032 0.097358 0.030293
-187.283427 58.075494 29.269333 170.373921 -49.399970 -3.238207 4.905802 21.871727 3.647963 2.537745 12.525683 1.871596 3.258576 15.665627 2.454348 2.535626 12.526215 1.872691 -0.199873 16.985761 -1.778714 0.243572 -4.217236 -3.214880 1.106460 3.996288 -0.370770 3.177050 -12.460688 -10.297574 -59.766737 -71.487874 100.549244 6.152891 23.454170 -15.290627 -9.884699 1.573359 -1.154272 2.640964 -11.110851 12.181748 52.261659 -71.135911 -91.040707 -6.793760 10.577905 4.439714 3.654532 -23.226676 1.100561 -36.959468 72.970060 -37.895933 6.735259 -12.066782 9.089297 0.011600 -0.126329 0.007599 -0.048668 -22.026784 13.464298 51.648971 79.865164 51.666826 3.860792 -16.105464 -15.473621 0.055689 0.100091 0.029807
